<svg width="30" height="25" viewBox="0 0 30 25" fill="none" xmlns="http://www.w3.org/2000/svg">
<path d="M4.09271 16.6542C2.19623 14.6392 0.75 12.1402 0.75 8.86453C0.75 5.53164 2.74869 2.6411 5.63471 1.39626C8.36724 0.217626 11.7389 0.573227 14.75 3.11529C17.7611 0.573227 21.1327 0.217626 23.8652 1.39626C26.7513 2.6411 28.75 5.53164 28.75 8.86453C28.75 12.1402 27.3038 14.6392 25.4073 16.6542C23.5443 18.6338 21.1694 20.2174 19.3115 21.5995C18.6443 22.0957 17.9283 22.6249 17.2025 23.025C16.477 23.4251 15.6491 23.7502 14.75 23.7502C13.8509 23.7502 13.023 23.4251 12.2975 23.025C11.5717 22.6249 10.8556 22.0957 10.1885 21.5995C8.33054 20.2174 5.9557 18.6338 4.09271 16.6542Z" stroke="#595959" stroke-width="1.5"/>
</svg>
