<svg width="20" height="20" viewBox="0 0 20 20" fill="none" xmlns="http://www.w3.org/2000/svg">
<path d="M10.2507 8.96371C10.1581 9.07021 10.1091 9.20773 10.1136 9.34877C10.118 9.48982 10.1755 9.624 10.2745 9.72449C10.3736 9.82498 10.507 9.88437 10.6479 9.8908C10.7889 9.89722 10.9271 9.8502 11.0349 9.75914L18.8772 1.91688V5.92763C18.8795 6.07548 18.9392 6.21662 19.0438 6.32117C19.1483 6.42573 19.2895 6.48549 19.4373 6.4878C19.5859 6.4878 19.7284 6.42878 19.8334 6.32373C19.9385 6.21868 19.9975 6.0762 19.9975 5.92763V0.56129C19.9975 0.412726 19.9385 0.270247 19.8334 0.165196C19.7284 0.0601458 19.5859 0.00112915 19.4373 0.00112915H14.071C13.9224 0.00112915 13.7799 0.0601458 13.6749 0.165196C13.5698 0.270247 13.5108 0.412726 13.5108 0.56129C13.5108 0.709854 13.5698 0.852333 13.6749 0.957384C13.7799 1.06243 13.9224 1.12145 14.071 1.12145H18.0817L10.2507 8.96371Z" fill="#595959"/>
<path d="M16.583 20H3.41698C2.51102 19.9991 1.64241 19.6388 1.00179 18.9982C0.361178 18.3576 0.000889803 17.489 0 16.583V3.41698C0.000889803 2.51102 0.361178 1.64241 1.00179 1.00179C1.64241 0.361178 2.51102 0.000889803 3.41698 0H10.1703C10.3189 0 10.4613 0.0590169 10.5664 0.164068C10.6714 0.269118 10.7305 0.411597 10.7305 0.560161C10.7305 0.708725 10.6714 0.851205 10.5664 0.956255C10.4613 1.06131 10.3189 1.12032 10.1703 1.12032H3.41698C2.80814 1.12121 2.2245 1.36347 1.79398 1.79398C1.36347 2.2245 1.12121 2.80814 1.12032 3.41698V16.583C1.12121 17.1919 1.36347 17.7755 1.79398 18.206C2.2245 18.6365 2.80814 18.8788 3.41698 18.8797H16.583C17.1919 18.8788 17.7755 18.6365 18.206 18.206C18.6365 17.7755 18.8788 17.1919 18.8797 16.583V9.83083C18.8797 9.68227 18.9387 9.53979 19.0437 9.43474C19.1488 9.32969 19.2913 9.27067 19.4398 9.27067C19.5884 9.27067 19.7309 9.32969 19.8359 9.43474C19.941 9.53979 20 9.68227 20 9.83083V16.583C19.9991 17.489 19.6388 18.3576 18.9982 18.9982C18.3576 19.6388 17.489 19.9991 16.583 20Z" fill="#595959"/>
</svg>
